<svg xmlns="http://www.w3.org/2000/svg" width="268" height="74" viewBox="0 0 268 74"><defs><style>.a,.b,.d{fill:#fff;}.a{font-size:30px;font-family:Poppins-Bold, Poppins;font-weight:700;}.b{stroke:#66b5e1;}.c{fill:#66b5e1;}.e{stroke:none;}.f{fill:none;}</style></defs><text class="a" transform="translate(83 47)"><tspan x="0" y="0">Kedainologi</tspan></text><g class="b"><circle class="e" cx="37" cy="37" r="37"/><circle class="f" cx="37" cy="37" r="36.5"/></g><g transform="translate(7.312 7.312)"><circle class="c" cx="29.691" cy="29.691" r="29.691" transform="translate(0 0)"/></g><g transform="translate(18.066 7.312)"><path class="d" d="M184.725,58.285A9.888,9.888,0,0,1,184.8,61.9a8.792,8.792,0,0,1-1.424,3.242,10.854,10.854,0,0,1-3.689,3.169c-.192.1-.7.3-1.5.588a7.607,7.607,0,0,1-2.812.406,7.9,7.9,0,0,1-3.4-.957,8.383,8.383,0,0,1-3.25-3.5l-5.119-9.659L162.219,52.6l-2.776,3.466v13.35h-12.28V23.787a24.183,24.183,0,0,0-.216-3.684,4.2,4.2,0,0,0-.841-2.066,3.048,3.048,0,0,0-1.646-.994,17.7,17.7,0,0,0-2.559-.406,7.522,7.522,0,0,1,3.437-5.272,10.846,10.846,0,0,1,12.2,1.333,7.293,7.293,0,0,1,1.9,5.2V43.7L173.25,27.114a4.678,4.678,0,0,1,3.034-1.509,11.055,11.055,0,0,1,3.473.182,17.193,17.193,0,0,1,3.947,1.327l-12.719,15.1L177.93,55.26a13.718,13.718,0,0,0,1.424,2.357,4.309,4.309,0,0,0,1.46,1.254,2.809,2.809,0,0,0,1.718.218,6.839,6.839,0,0,0,2.193-.806Z" transform="translate(-141.9 -10.034)"/></g></svg>