<svg xmlns="http://www.w3.org/2000/svg" xmlns:xlink="http://www.w3.org/1999/xlink" width="811.009" height="522.096" viewBox="0 0 811.009 522.096"><defs><style>.a,.h,.i,.s{fill:#fff;}.b{fill:url(#a);}.c{fill:#368cbc;}.c,.e,.f,.g{stroke:#95989a;}.d{fill:#a8a8a8;}.e,.n{fill:#eea671;}.f{fill:#fec194;}.g{fill:#4e3d3d;}.h,.i{stroke:#707070;}.h{opacity:0.57;}.j{clip-path:url(#b);}.k{fill:#2382b7;}.l{fill:#9f9f9f;}.m{fill:#a3a3a3;}.o{fill:#febd8d;}.p{fill:#2a1919;}.q{fill:#392929;}.r{fill:#3079a1;}.s{stroke:#66b5e1;}.t{fill:#66b5e1;}.u{stroke:none;}.v{fill:none;}</style><linearGradient id="a" x1="0.5" x2="0.5" y2="1" gradientUnits="objectBoundingBox"><stop offset="0" stop-color="#a9caf9"/><stop offset="1" stop-color="#b2bef2"/></linearGradient><clipPath id="b"><path class="a" d="M-41.163,30.689C49.337-89.311,362,0,362,0V480H0s39.935-79.6,30.9-200.378C23.84,185.316-80.893,83.369-41.163,30.689Z" transform="translate(-1681 -7007)"/></clipPath></defs><g transform="translate(0 0)"><rect class="b" width="789.539" height="9.943" rx="4.971" transform="translate(0 512.153)"/><g transform="translate(241.831)"><path class="c" d="M25.211,24.546c40.7-20.746,93.216-22.32,138.643-2.888s37.024,94.661,37.024,94.661H1.316A157,157,0,0,1-1.938,76.96C-.943,57.221,5.145,34.773,25.211,24.546Z" transform="translate(91.178 240.626)"/><g transform="translate(0 315.515)"><rect class="d" width="391.086" height="20.218" rx="10.109" transform="translate(0 175.806)"/><path class="d" d="M11.811,0H306.452a11.811,11.811,0,0,1,11.811,11.811V176.8a11.811,11.811,0,0,1-11.811,11.811H11.811A11.811,11.811,0,0,1,0,176.8V11.811A11.811,11.811,0,0,1,11.811,0Z" transform="translate(31.758)"/><path class="d" d="M3,0H315.263a3,3,0,0,1,3,3V185.609a3,3,0,0,1-3,3H3a3,3,0,0,1-3-3V3A3,3,0,0,1,3,0Z" transform="translate(40.926)"/></g><path class="e" d="M5.832,0H44.17a36.961,36.961,0,0,0,2.223,13.962C49.032,20.488,53.9,28.909,53.067,30.6s-9.592,6.835-22.788,7.645S2.637,33.416,1.109,31.162s4.237-10.168,5.834-17.2S5.832,0,5.832,0Z" transform="translate(167.924 221.641)"/><path class="f" d="M22.9.6S78.021-2.44,83.931,5.159,80.463,40.006,77.3,60.4s-2.533,19.25-8.081,27.471-12.544,11.383-24.967,11S21.814,87.057,15.542,78.639s-3.015-25.716-5.548-29.09S3.088,43.478,1.309,37.027-.862,25.581,2.877,23.747s11.1,9.107,14.112,5.186S22.9.6,22.9.6Z" transform="translate(144.928 149.524) rotate(-3)"/><path class="g" d="M16.153,22.7S20.133,2.915,45.945.262s44.266,15.68,47.04,17.851-3.044,5.17-.753,5.863,6.18-4.6,9.919-3.089,4.7,7.237,3.98,10.132S99.257,45.131,92.985,48.991,81.5,53.785,67.414,52.006,44.015,37.17,36.657,41.874s-6.875,26.174-10.976,26.9-9.77-7.719-13.268-6.031-1.078,9.228-2.9,7.478C6.262,67.083-1.427,50.981.231,39.1S16.153,22.7,16.153,22.7Z" transform="translate(133.312 112.401) rotate(-3)"/><g class="h" transform="translate(176.016 400.792)"><circle class="u" cx="19.162" cy="19.162" r="19.162"/><circle class="v" cx="19.162" cy="19.162" r="18.662"/></g><g class="i" transform="translate(180.806 405.583)"><circle class="u" cx="14.372" cy="14.372" r="14.372"/><circle class="v" cx="14.372" cy="14.372" r="13.872"/></g><g class="j" transform="translate(1888.178 7038.955)"><path class="k" d="M25.211,24.546c40.7-20.746,93.216-22.32,138.643-2.888s37.024,94.661,37.024,94.661H1.316A157,157,0,0,1-1.938,76.96C-.943,57.221,5.145,34.773,25.211,24.546Z" transform="translate(-1797 -6798.329)"/><g transform="translate(-1888.178 -6723.439)"><rect class="l" width="391.086" height="20.218" rx="10.109" transform="translate(0 175.806)"/><path class="m" d="M11.811,0H306.452a11.811,11.811,0,0,1,11.811,11.811V176.8a11.811,11.811,0,0,1-11.811,11.811H11.811A11.811,11.811,0,0,1,0,176.8V11.811A11.811,11.811,0,0,1,11.811,0Z" transform="translate(31.758)"/><path class="l" d="M3,0H315.263a3,3,0,0,1,3,3V185.609a3,3,0,0,1-3,3H3a3,3,0,0,1-3-3V3A3,3,0,0,1,3,0Z" transform="translate(40.926)"/></g><path class="n" d="M5.832,0H44.17a36.961,36.961,0,0,0,2.223,13.962C49.032,20.488,53.9,28.909,53.067,30.6s-9.592,6.835-22.788,7.645S2.637,33.416,1.109,31.162s4.237-10.168,5.834-17.2S5.832,0,5.832,0Z" transform="translate(-1720.254 -6817.313)"/><g transform="translate(-1754.866 -6926.553) rotate(-3)"><path class="o" d="M22.9.6S78.021-2.44,83.931,5.159,80.463,40.006,77.3,60.4s-2.533,19.25-8.081,27.471-12.544,11.383-24.967,11S21.814,87.057,15.542,78.639s-3.015-25.716-5.548-29.09S3.088,43.478,1.309,37.027-.862,25.581,2.877,23.747s11.1,9.107,14.112,5.186S22.9.6,22.9.6Z" transform="translate(9.657 37.68)"/><path class="p" d="M16.153,22.7S20.133,2.915,45.945.262s44.266,15.68,47.04,17.851-3.044,5.17-.753,5.863,6.18-4.6,9.919-3.089,4.7,7.237,3.98,10.132S99.257,45.131,92.985,48.991,81.5,53.785,67.414,52.006,44.015,37.17,36.657,41.874s-6.875,26.174-10.976,26.9-9.77-7.719-13.268-6.031-1.078,9.228-2.9,7.478C6.262,67.083-1.427,50.981.231,39.1S16.153,22.7,16.153,22.7Z"/><path class="q" d="M1.329,22.537C-.118,17.833,2.839,30.522,1.329,22.537Z" transform="translate(20.734 86.882)"/></g></g></g><path d="M9479.15,542.011c-54.116,5.071-67.176,27.259-67.176,27.259l15.672,7.607,60.074-12.045Z" transform="translate(-9067.991 -292.045)"/><path d="M9418.9,542.011c43.746,5.071,54.3,27.259,54.3,27.259l-12.668,7.607-48.562-12.045Z" transform="translate(-8955.456 -290.045)"/><path class="r" d="M9445.63,584.488h38.036a24.59,24.59,0,0,1,0,7.33,33.9,33.9,0,0,1-2.5,7.682h-31.3l-4.244-7.682Z" transform="translate(-8985.991 -284.045)"/><path class="r" d="M9445.63,584.488h38.036a36.6,36.6,0,0,1,0,8.722,15.977,15.977,0,0,1-2.5,6.29h-31.3l-3.96-5.876-.284-7.963Z" transform="translate(-9067.991 -284.045)"/><path class="r" d="M9477.44,543.026l-9.482,1.359s5.69,7.6,10.336,12.508,13.057,14.54,13.057,14.54l14.921-7.974s-14.574-12.529-20.521-17.487S9477.44,543.026,9477.44,543.026Z" transform="translate(-9067.991 -293.045)"/><path class="r" d="M9496.54,543.018l9.444,1.527s-5.683,7.242-10.292,12.039-12.957,14.225-12.957,14.225l-13.229-9.648s12.885-10.41,18.787-15.261S9496.54,543.018,9496.54,543.018Z" transform="translate(-9031.678 -290.979)"/><path d="M9492.32,550.559l13.8,11.765,16.736-13.906s-17.241,5.12-31.646,1.2" transform="translate(-9067.991 -292.045)"/><g transform="translate(415.12 396.065)"><g class="s" transform="translate(-0.111 -0.111)"><circle class="u" cx="22.5" cy="22.5" r="22.5"/><circle class="v" cx="22.5" cy="22.5" r="22"/></g><g transform="translate(4.436 4.436)"><circle class="t" cx="18.011" cy="18.011" r="18.011" transform="translate(0 0)"/></g><g transform="translate(10.959 4.436)"><path class="a" d="M167.878,39.3a6,6,0,0,1,.044,2.191,5.333,5.333,0,0,1-.864,1.967,6.584,6.584,0,0,1-2.238,1.922c-.117.059-.423.18-.907.357a4.615,4.615,0,0,1-1.706.246,4.791,4.791,0,0,1-2.063-.581,5.085,5.085,0,0,1-1.972-2.125l-3.105-5.859-.842-1.566-1.684,2.1v8.1h-7.449V18.377a14.67,14.67,0,0,0-.131-2.235,2.549,2.549,0,0,0-.51-1.253,1.849,1.849,0,0,0-1-.6,10.738,10.738,0,0,0-1.553-.246,4.563,4.563,0,0,1,2.085-3.2,6.579,6.579,0,0,1,7.4.809,4.424,4.424,0,0,1,1.152,3.154V30.455l8.379-10.061a2.838,2.838,0,0,1,1.84-.915,6.706,6.706,0,0,1,2.107.11,10.43,10.43,0,0,1,2.394.805l-7.715,9.16,4.213,7.914a8.32,8.32,0,0,0,.864,1.43,2.614,2.614,0,0,0,.886.761,1.7,1.7,0,0,0,1.042.132,4.149,4.149,0,0,0,1.33-.489Z" transform="translate(-141.9 -10.034)"/></g></g></g></svg>