<svg xmlns="http://www.w3.org/2000/svg" xmlns:xlink="http://www.w3.org/1999/xlink" width="211.29" height="211.29" viewBox="0 0 211.29 211.29"><defs><style>.a{fill:none;}.b{fill:url(#a);}.c{clip-path:url(#b);}.d{fill:#61402f;}.e{fill:#eac8ad;}.f{fill:#f2d7bc;}.g{fill:#eac0a7;}.h{fill:#fff;}.i{fill:url(#c);}.j{fill:url(#d);}</style><linearGradient id="a" x1="0.5" x2="0.5" y2="1" gradientUnits="objectBoundingBox"><stop offset="0" stop-color="#0b42f5"/><stop offset="1" stop-color="#3bfaff"/></linearGradient><clipPath id="b"><circle class="a" cx="80.892" cy="80.892" r="80.892" transform="translate(0 149.6) rotate(-67.614)"/></clipPath><linearGradient id="c" x1="0.457" y1="-0.191" x2="0.5" y2="1" gradientUnits="objectBoundingBox"><stop offset="0" stop-color="#3bfaff"/><stop offset="1" stop-color="#0b42f5"/></linearGradient><linearGradient id="d" x1="0.568" y1="1.796" x2="0.632" y2="-0.363" xlink:href="#c"/></defs><g transform="translate(-612.757 -3242.757)"><g transform="translate(612.757 3242.807)"><g transform="translate(24.706 24.705)"><path class="b" d="M578.293,391.758a80.89,80.89,0,1,0-80.89,80.889,80.89,80.89,0,0,0,80.89-80.889Z" transform="translate(-416.513 -310.867)"/></g><g class="c"><g transform="translate(65.689 30.589)"><path class="d" d="M535.275,364.2a35.4,35.4,0,1,0-35.4,35.4A35.4,35.4,0,0,0,535.275,364.2Z" transform="translate(-459.814 -317.618)"/><path class="e" d="M512.912,444.343,500.918,477.99l-11.7-33.647V418.367h23.689Z" transform="translate(-461.011 -321.947)"/><g transform="translate(4.574 24.429)"><path class="f" d="M500.161,342.72c-11.5,0-29.691,6.539-29.691,37.178,0,17.69,6.895,26.032,9.407,29.238,2.314,2.949,14.185,12.484,20.284,12.484Z" transform="translate(-464.678 -342.72)"/><path class="f" d="M464.453,388.968c-.507-4.9,1.826-9.24,5.209-9.7s6.54,3.129,7.047,8.023-1.826,9.238-5.21,9.7S464.961,393.861,464.453,388.968Z" transform="translate(-464.384 -344.485)"/></g><g transform="translate(39.962 24.429)"><path class="g" d="M501.57,342.72c11.5,0,29.691,6.539,29.691,37.178,0,17.69-6.9,26.032-9.407,29.238-2.313,2.949-14.184,12.484-20.284,12.484Z" transform="translate(-501.57 -342.72)"/><g transform="translate(23.182 34.739)"><path class="g" d="M538.255,388.968c.507-4.9-1.825-9.24-5.209-9.7s-6.539,3.129-7.047,8.023,1.826,9.238,5.21,9.7S537.748,393.861,538.255,388.968Z" transform="translate(-525.929 -379.224)"/></g></g><path class="d" d="M499.7,334.915a14.905,14.905,0,0,0-1.745-.125s-19.427,1.455-24.835,26.758c-2.6,1.946-7.353,9.515-1.081,17.95.864-7.137,3.479-12.307,8-14.274,8.024-3.491,11.328-.247,20.627-7.383,5.431-4.168,7.384-12.55,6.183-17.233A8.572,8.572,0,0,0,499.7,334.915Z" transform="translate(-460.03 -317.908)"/><path class="d" d="M507.447,342.3s-7,26.124,23.573,37.061C538.344,355.444,524.963,339.845,507.447,342.3Z" transform="translate(-461.858 -318.258)"/><path class="e" d="M499.485,478.585V446.228s-8.837-2.19-10.786-9.349a25.288,25.288,0,0,1-.909-6.2s-19.324,6.526-23.638,13.267c-3.591,10.686-4.575,34.64-4.575,34.64Z" transform="translate(-459.578 -322.542)"/><path class="e" d="M501.512,478.585V446.228s8.837-2.19,10.786-9.349a25.342,25.342,0,0,0,.909-6.2s19.323,6.526,23.637,13.267c3.59,10.686,4.574,34.64,4.574,34.64Z" transform="translate(-461.605 -322.542)"/><path class="h" d="M501.258,413.976c4.483,0,8.118-2.752,8.118-6.15H493.139C493.139,411.224,496.773,413.976,501.258,413.976Z" transform="translate(-461.2 -321.438)"/><path class="d" d="M512.279,328.226A11.177,11.177,0,1,0,501.1,339.4a11.177,11.177,0,0,0,11.177-11.174Z" transform="translate(-461.045 -317.05)"/><path class="i" d="M499.935,454.5c-9.892,0-17.93-9.463-18.145-21.233a51.429,51.429,0,0,0-8.415,3.965c-.342,2.373-2.96,8.913-4.179,18.756-1.2,9.7,1.618,22.72,1.618,22.72h29.121Z" transform="translate(-460.029 -322.668)"/><path class="j" d="M501.512,454.5c9.891,0,17.929-9.463,18.144-21.233a51.434,51.434,0,0,1,8.415,3.965c.342,2.373,2.96,8.913,4.179,18.756,1.2,9.7-1.618,22.72-1.618,22.72h-29.12Z" transform="translate(-461.605 -322.668)"/></g></g></g></g></svg>